<?xml version="1.0" standalone="no"?>
<!DOCTYPE svg PUBLIC "-//W3C//DTD SVG 20010904//EN"
 "http://www.w3.org/TR/2001/REC-SVG-20010904/DTD/svg10.dtd">
<svg version="1.0" xmlns="http://www.w3.org/2000/svg"
 width="460.000000pt" height="460.000000pt" viewBox="0 0 460.000000 460.000000"
 preserveAspectRatio="xMidYMid meet">
<metadata>
Created by potrace 1.14, written by Peter Selinger 2001-2017
</metadata>
<g transform="translate(0.000000,460.000000) scale(0.100000,-0.100000)"
fill="#000000" stroke="none">
<path d="M860 4580 c-208 -45 -379 -134 -528 -275 -165 -155 -285 -376 -321
-590 -9 -52 -12 -419 -9 -1465 l3 -1395 28 -89 c109 -347 362 -608 707 -728
l95 -33 1465 0 1465 0 95 33 c345 120 598 381 707 728 l28 89 3 1395 c4 1498
5 1461 -48 1618 -118 346 -392 598 -767 705 l-78 22 -1380 2 c-1311 2 -1384 1
-1465 -17z m1771 -424 c300 -56 573 -177 817 -360 122 -92 306 -282 394 -406
84 -118 195 -333 241 -466 317 -912 -93 -1905 -958 -2324 -846 -411 -1862
-134 -2389 650 -76 112 -177 319 -220 450 -104 315 -124 677 -55 999 45 206
146 448 261 624 295 449 780 764 1288 836 41 6 86 13 100 15 61 11 439 -3 521
-18z"/>
<path d="M2210 4069 c-514 -36 -1021 -306 -1313 -701 -258 -349 -401 -812
-367 -1183 38 -402 200 -783 458 -1076 312 -354 840 -591 1317 -591 531 0
1096 282 1407 703 258 348 398 802 366 1184 -34 415 -219 827 -503 1124 -335
350 -896 572 -1365 540z m360 -324 c589 -114 1040 -555 1172 -1146 19 -89 23
-132 23 -299 0 -168 -3 -209 -23 -299 -32 -141 -74 -256 -137 -379 -205 -394
-567 -668 -1008 -764 -136 -29 -434 -32 -570 -5 -194 39 -379 116 -548 229
-120 79 -314 272 -391 388 -397 599 -325 1365 177 1865 248 248 538 385 905
429 71 9 318 -3 400 -19z"/>
<path d="M2195 3679 c-389 -39 -773 -249 -986 -539 -194 -264 -293 -552 -292
-850 1 -348 154 -712 408 -966 195 -197 441 -327 735 -390 118 -25 362 -26
480 -1 526 111 911 448 1075 941 74 222 92 418 57 621 -99 577 -499 1010
-1062 1149 -89 22 -286 49 -324 45 -6 -1 -47 -5 -91 -10z m280 -574 c133 -34
260 -128 313 -231 25 -48 52 -150 52 -193 l0 -31 -69 0 -68 0 -6 49 c-21 181
-180 301 -399 301 -231 0 -398 -127 -398 -304 0 -84 18 -135 66 -182 61 -62
152 -100 342 -144 216 -50 292 -74 375 -117 156 -82 228 -239 199 -431 -23
-147 -100 -255 -229 -321 -107 -53 -170 -65 -348 -65 -147 0 -167 2 -242 27
-203 68 -325 217 -340 415 l-6 72 69 0 69 0 13 -66 c43 -226 233 -350 507
-331 220 15 354 131 363 312 5 98 -10 148 -65 206 -64 69 -142 103 -344 153
-234 58 -284 74 -353 108 -123 62 -195 159 -216 291 -35 223 112 422 356 481
81 20 284 20 359 1z"/>
</g>
</svg>
